<svg xmlns="http://www.w3.org/2000/svg" viewBox="0 0 410 404" fill="none">
  <path d="M399.641 59.5241L223.122 374.108C215.495 387.782 195.505 387.782 187.878 374.108L10.3592 59.5241C2.09089 44.6605 14.6414 26.9032 31.4793 29.7095L205 65.7734L378.521 29.7095C395.359 26.9032 407.909 44.6605 399.641 59.5241Z" fill="url(#paint0_linear)"/>
  <path d="M287.691 14.4948L156.44 40.1593C153.646 40.6906 151.58 43.0832 151.442 45.9427L143.391 190.724C143.312 192.234 144.604 193.458 146.097 193.284L182.662 188.99C184.348 188.789 185.8 190.266 185.561 191.947L174.917 269.371C174.666 271.131 176.251 272.605 177.959 272.241L200.215 267.468C201.93 267.102 203.52 268.59 203.261 270.356L189.031 371.236C188.659 373.866 191.996 375.536 193.981 373.219L195.318 371.588C197.139 369.447 198.41 366.87 199.99 364.553C212.255 346.949 246.776 295.978 303.286 210.362C304.565 208.41 302.866 206.005 300.605 206.246L259.109 210.651C257.257 210.843 255.786 209.066 256.351 207.293L296.946 77.8917C297.498 76.1185 296.033 74.3484 294.185 74.5376L210.326 83.3023C208.463 83.4935 206.98 81.6958 207.569 79.9109L293.135 17.6632C293.735 15.8743 292.196 13.7777 290.34 14.0578L287.691 14.4948Z" fill="url(#paint1_linear)"/>
  <defs>
    <linearGradient id="paint0_linear" x1="6.00017" y1="32.9999" x2="235" y2="380" gradientUnits="userSpaceOnUse">
      <stop stop-color="#41D1FF"/>
      <stop offset="1" stop-color="#BD34FE"/>
    </linearGradient>
    <linearGradient id="paint1_linear" x1="194.651" y1="28.0168" x2="236.076" y2="350.975" gradientUnits="userSpaceOnUse">
      <stop stop-color="#FFEA83"/>
      <stop offset="0.0833333" stop-color="#FFDD35"/>
      <stop offset="1" stop-color="#FFA800"/>
    </linearGradient>
  </defs>
</svg>
